<mxfile host="app.diagrams.net" modified="2023-05-28T15:44:22.832Z" agent="Mozilla/5.0 (X11; Ubuntu; Linux x86_64; rv:109.0) Gecko/20100101 Firefox/113.0" version="21.3.5" etag="BbJuLGqTti-VBwV5f5l5" type="github">
  <diagram name="Page-1" id="9O4NA4LrLLXZkWkuDNmq">
    <mxGraphModel>
      <root>
        <mxCell id="0" />
        <mxCell id="1" parent="0" />
      </root>
    </mxGraphModel>
  </diagram>
</mxfile>
